Coordinates
version=1
nRows=26
nColumns=24
inDegrees=yes

Units are S.I. units (second, meters, Newtons, ...)
If the header above contains a line with 'inDegrees', this indicates whether rotational values are in degrees (yes) or radians (no).

endheader
time	pelvis_tilt	pelvis_list	pelvis_rotation	pelvis_tx	pelvis_ty	pelvis_tz	hip_flexion_r	hip_adduction_r	hip_rotation_r	knee_angle_r	ankle_angle_r	subtalar_angle_r	mtp_angle_r	hip_flexion_l	hip_adduction_l	hip_rotation_l	knee_angle_l	ankle_angle_l	subtalar_angle_l	mtp_angle_l	lumbar_extension	lumbar_bending	lumbar_rotation
      2.98000000	     11.85911345	     -0.07850717	     -2.22293550	      0.48076407	      0.97265664	     -0.02248195	    -24.10717876	     -2.33115960	     -3.41517934	     13.50390243	     -4.25901892	      0.00000000	      0.00000000	    -21.38164278	     -1.06450374	      2.27123983	      6.14303950	      2.34683982	      0.00000000	      0.00000000	    -16.54153575	     -2.64245659	     -0.47506831
      2.99000000	     11.85123962	     -0.09000299	     -2.22583620	      0.48094035	      0.97260178	     -0.02269251	    -24.10886277	     -2.33377997	     -3.41674227	     13.50243949	     -4.25873028	      0.00000000	      0.00000000	    -21.38175494	     -1.06010056	      2.27272691	      6.14021571	      2.34585617	      0.00000000	      0.00000000	    -16.54071253	     -2.64334391	     -0.47551812
      3.00000000	     11.83963890	     -0.10532417	     -2.25674806	      0.48107592	      0.97257009	     -0.02287176	    -24.10077379	     -2.33679484	     -3.42145802	     13.50543779	     -4.25705648	      0.00000000	      0.00000000	    -21.37586110	     -1.05411107	      2.27764752	      6.12600143	      2.34668182	      0.00000000	      0.00000000	    -16.52658642	     -2.63798206	     -0.48051301
      3.01000000	     11.83321383	     -0.11647262	     -2.26016060	      0.48120743	      0.97256102	     -0.02309829	    -24.10139865	     -2.34018569	     -3.42215583	     13.50495663	     -4.25722707	      0.00000000	      0.00000000	    -21.37586835	     -1.04804183	      2.27821757	      6.12322071	      2.34736064	      0.00000000	      0.00000000	    -16.52368880	     -2.63671414	     -0.48151519
      3.02000000	     11.51532017	     -0.15558791	     -2.35517987	      0.48124072	      0.97226961	     -0.02325282	    -23.71183283	     -2.34707647	     -3.30675168	     13.45365615	     -4.26952037	      0.00000000	      0.00000000	    -20.98201973	     -1.03954616	      2.13964432	      5.99947960	      2.43039094	      0.00000000	      0.00000000	    -16.08267794	     -2.51433392	     -0.59031540
      3.03000000	     11.51031253	     -0.16746050	     -2.36113751	      0.48132795	      0.97227585	     -0.02347711	    -23.71275566	     -2.35118714	     -3.30952971	     13.45548057	     -4.27056210	      0.00000000	      0.00000000	    -20.98341787	     -1.03342428	      2.14091021	      5.99966325	      2.43107364	      0.00000000	      0.00000000	    -16.08242933	     -2.51338847	     -0.59040552
      3.04000000	     11.47621626	     -0.18138850	     -2.43707730	      0.48143132	      0.97221415	     -0.02365710	    -23.69796236	     -2.37162471	     -3.31410332	     13.51647079	     -4.33316162	      0.00000000	      0.00000000	    -20.98578655	     -1.00414486	      2.09214295	      6.04041357	      2.45424198	      0.00000000	      0.00000000	    -16.05072804	     -2.45652540	     -0.59189428
      3.05000000	     11.47183045	     -0.19250320	     -2.44652007	      0.48146863	      0.97222383	     -0.02384315	    -23.69930318	     -2.37396522	     -3.31617766	     13.52218701	     -4.33530241	      0.00000000	      0.00000000	    -20.98467167	     -1.00025990	      2.09100532	      6.04056812	      2.45352084	      0.00000000	      0.00000000	    -16.04920463	     -2.45444642	     -0.59181781
      3.06000000	     11.39171524	     -0.23276796	     -2.56432016	      0.48159147	      0.97212155	     -0.02396217	    -23.67899508	     -2.38128006	     -3.27414441	     13.68852990	     -4.50658650	      0.00000000	      0.00000000	    -20.95284012	     -0.97921651	      1.92573206	      6.10215260	      2.45932712	      0.00000000	      0.00000000	    -15.96499031	     -2.33896840	     -0.57708059
      3.07000000	     11.36431750	     -0.27169367	     -2.66911508	      0.48161988	      0.97211072	     -0.02398123	    -23.66670965	     -2.37304688	     -3.27200277	     13.75182970	     -4.54473793	      0.00000000	      0.00000000	    -20.93896349	     -0.98182934	      1.90077127	      6.09371432	      2.44736689	      0.00000000	      0.00000000	    -15.94102108	     -2.31454285	     -0.56376954
      3.08000000	     11.35799759	     -0.28343945	     -2.67291689	      0.48161884	      0.97213066	     -0.02419693	    -23.66852657	     -2.37665760	     -3.27219988	     13.75757021	     -4.54884949	      0.00000000	      0.00000000	    -20.93542885	     -0.97660878	      1.89637051	      6.09732722	      2.44806294	      0.00000000	      0.00000000	    -15.93986871	     -2.31187085	     -0.56229349
      3.09000000	     11.11735016	     -0.38709377	     -2.89722209	      0.48166579	      0.97191519	     -0.02415277	    -23.45345589	     -2.36409071	     -3.04334731	     13.92421093	     -4.82004701	      0.00000000	      0.00000000	    -20.72318041	     -0.98510337	      1.54489207	      6.12889117	      2.45274155	      0.00000000	      0.00000000	    -15.61652624	     -2.09693959	     -0.11951194
      3.10000000	     11.06879840	     -0.39566038	     -2.96166942	      0.48169898	      0.97185379	     -0.02423768	    -23.44497259	     -2.37552193	     -3.05853850	     14.02646398	     -4.88382196	      0.00000000	      0.00000000	    -20.69506707	     -0.96158211	      1.49042293	      6.15815961	      2.46007455	      0.00000000	      0.00000000	    -15.60679360	     -2.06898997	     -0.08108104
      3.11000000	     11.04021480	     -0.41331792	     -3.04306701	      0.48168265	      0.97184000	     -0.02427167	    -23.43567895	     -2.38149180	     -3.06630261	     14.09296965	     -4.91458231	      0.00000000	      0.00000000	    -20.67930545	     -0.95044042	      1.46488650	      6.16209827	      2.45629556	      0.00000000	      0.00000000	    -15.59819070	     -2.04819123	     -0.06109760
      3.12000000	     10.93734450	     -0.44770423	     -3.17531920	      0.48167795	      0.97174413	     -0.02429811	    -23.36692269	     -2.40962507	     -2.93012297	     14.22450623	     -5.12279792	      0.00000000	      0.00000000	    -20.58958399	     -0.92259894	      1.24684015	      6.17496637	      2.43367218	      0.00000000	      0.00000000	    -15.46591169	     -1.97753233	      0.13335336
      3.13000000	     10.89017219	     -0.44920226	     -3.23168768	      0.48169198	      0.97168013	     -0.02439865	    -23.33568034	     -2.43066695	     -2.92962402	     14.27402769	     -5.12856807	      0.00000000	      0.00000000	    -20.56025872	     -0.89488475	      1.20836231	      6.20731981	      2.44213571	      0.00000000	      0.00000000	    -15.46439918	     -1.93839659	      0.19158338
      3.14000000	     10.87973106	     -0.45779845	     -3.27891067	      0.48159150	      0.97166182	     -0.02444250	    -23.32503901	     -2.43714294	     -2.93280282	     14.29810272	     -5.13293702	      0.00000000	      0.00000000	    -20.54908272	     -0.88612152	      1.19912281	      6.21060560	      2.43775147	      0.00000000	      0.00000000	    -15.46231531	     -1.92647776	      0.20768450
      3.15000000	     10.87862320	     -0.45807296	     -3.27940678	      0.48156569	      0.97167081	     -0.02446906	    -23.32475498	     -2.43746941	     -2.93281864	     14.29859726	     -5.13303537	      0.00000000	      0.00000000	    -20.54964067	     -0.88579422	      1.19879971	      6.21052720	      2.43771940	      0.00000000	      0.00000000	    -15.46236713	     -1.92622081	      0.20796084
      3.16000000	     10.86351132	     -0.46175591	     -3.31339618	      0.48149459	      0.97163963	     -0.02458985	    -23.30842449	     -2.45317107	     -2.93476752	     14.32219844	     -5.13772179	      0.00000000	      0.00000000	    -20.54176481	     -0.86787390	      1.18428770	      6.22672386	      2.43696257	      0.00000000	      0.00000000	    -15.46951072	     -1.90704945	      0.22022849
      3.17000000	     10.86309944	     -0.46114868	     -3.31433394	      0.48147207	      0.97162125	     -0.02462370	    -23.30804618	     -2.45339357	     -2.93465822	     14.32259708	     -5.13790376	     -0.00000000	      0.00000000	    -20.54160177	     -0.86757462	      1.18375503	      6.22726693	      2.43691555	      0.00000000	      0.00000000	    -15.46970297	     -1.90645195	      0.22057641
      3.18000000	     10.68934094	     -0.45658544	     -3.54839479	      0.48134318	      0.97144567	     -0.02464005	    -23.05979067	     -2.57801110	     -2.64713959	     14.29780032	     -5.15282971	      0.00000000	      0.00000000	    -20.40525408	     -0.75385008	      0.83887156	      6.31509710	      2.34289943	      0.00000000	      0.00000000	    -15.28395535	     -1.75082087	      0.85909073
      3.19000000	     10.68961280	     -0.45629417	     -3.54830126	      0.48132604	      0.97142469	     -0.02467213	    -23.05937692	     -2.57809748	     -2.64717805	     14.29778806	     -5.15287010	      0.00000000	      0.00000000	    -20.40540182	     -0.75378004	      0.83886004	      6.31519650	      2.34285344	      0.00000000	      0.00000000	    -15.28403417	     -1.75060584	      0.85922570
      3.20000000	     10.68869303	     -0.42417572	     -3.53842690	      0.48123635	      0.97141471	     -0.02487780	    -23.02929499	     -2.62295274	     -2.66292632	     14.25628766	     -5.14085183	      0.00000000	      0.00000000	    -20.40791425	     -0.70900058	      0.85121556	      6.34722528	      2.32324881	      0.00000000	      0.00000000	    -15.31322890	     -1.68517989	      0.88439591
      3.21000000	     10.68908585	     -0.42394313	     -3.53789347	      0.48122596	      0.97139099	     -0.02491587	    -23.02852659	     -2.62297958	     -2.66283363	     14.25625937	     -5.14070361	      0.00000000	      0.00000000	    -20.40834553	     -0.70873349	      0.85118880	      6.34724805	      2.32311552	      0.00000000	      0.00000000	    -15.31332511	     -1.68494605	      0.88450878
      3.22000000	     10.69235966	     -0.39919906	     -3.48681389	      0.48117882	      0.97139241	     -0.02515269	    -23.01368901	     -2.65301093	     -2.66248949	     14.21407353	     -5.12364686	      0.00000000	      0.00000000	    -20.40998249	     -0.68092121	      0.85565723	      6.37297710	      2.31365394	      0.00000000	      0.00000000	    -15.32725017	     -1.64556719	      0.89210676
      3.23000000	     10.69253915	     -0.39836843	     -3.48642549	      0.48117565	      0.97135825	     -0.02518799	    -23.01279831	     -2.65270561	     -2.66248251	     14.21392908	     -5.12330463	      0.00000000	      0.00000000	    -20.41070920	     -0.68050169	      0.85586522	      6.37281663	      2.31340459	      0.00000000	      0.00000000	    -15.32740455	     -1.64509780	      0.89216702
